<?xml version="1.0" encoding="utf-8"?>
<!-- Generator: Adobe Illustrator 13.0.0, SVG Export Plug-In . SVG Version: 6.00 Build 14948)  -->
<!DOCTYPE svg PUBLIC "-//W3C//DTD SVG 1.1//EN" "http://www.w3.org/Graphics/SVG/1.1/DTD/svg11.dtd">
<svg version="1.1" id="レイヤー_1" xmlns="http://www.w3.org/2000/svg" xmlns:xlink="http://www.w3.org/1999/xlink" x="0px"
	 y="0px" width="1792px" height="1792px" viewBox="0 0 1792 1792" enable-background="new 0 0 1792 1792" xml:space="preserve">
<path fill="#FFFFFF" d="M1596,380c18.666,18.667,34.666,44,48,76c13.333,32,20,61.333,20,88v1152c0,26.667-9.334,49.333-28,68
	c-18.667,18.667-41.334,28-68,28H224c-26.667,0-49.334-9.333-68-28c-18.667-18.667-28-41.333-28-68V96c0-26.667,9.333-49.333,28-68
	c18.666-18.667,41.333-28,68-28h896c26.666,0,56,6.667,88,20s57.333,29.333,76,48L1596,380z M1152,136v376h376
	c-6.667-19.333-14-33-22-41l-313-313C1185,150,1171.333,142.667,1152,136z M1536,1664V640h-416c-26.667,0-49.334-9.333-68-28
	c-18.667-18.667-28-41.333-28-68V128H256v1536H1536z M512,800c0-9.333,3-17,9-23s13.666-9,23-9h704c9.333,0,17,3,23,9s9,13.667,9,23
	v64c0,9.333-3,17-9,23s-13.667,9-23,9H544c-9.334,0-17-3-23-9s-9-13.667-9-23V800z M1248,1024c9.333,0,17,3,23,9s9,13.667,9,23v64
	c0,9.333-3,17-9,23s-13.667,9-23,9H544c-9.334,0-17-3-23-9s-9-13.667-9-23v-64c0-9.333,3-17,9-23s13.666-9,23-9H1248z M1248,1280
	c9.333,0,17,3,23,9s9,13.667,9,23v64c0,9.333-3,17-9,23s-13.667,9-23,9H544c-9.334,0-17-3-23-9s-9-13.667-9-23v-64
	c0-9.333,3-17,9-23s13.666-9,23-9H1248z"/>
</svg>
